<?xml version="1.0" encoding="UTF-8"?>
<svg width="32px" height="32px" viewBox="0 0 32 32" version="1.1" xmlns="http://www.w3.org/2000/svg">
  <defs>
    <linearGradient id="bgGradient" x1="0%" y1="0%" x2="100%" y2="100%">
      <stop offset="0%" style="stop-color:#4f46e5;stop-opacity:1" />
      <stop offset="100%" style="stop-color:#7c3aed;stop-opacity:1" />
    </linearGradient>
    <linearGradient id="accentGradient" x1="0%" y1="0%" x2="100%" y2="100%">
      <stop offset="0%" style="stop-color:#06b6d4;stop-opacity:1" />
      <stop offset="100%" style="stop-color:#3b82f6;stop-opacity:1" />
    </linearGradient>
  </defs>
  
  <!-- Fondo moderno con esquinas redondeadas -->
  <rect x="0" y="0" width="32" height="32" rx="8" fill="url(#bgGradient)"/>
  
  <!-- Elementos geométricos modernos -->
  <path d="M6,16 L16,6 L26,16 L16,26 Z" fill="none" stroke="white" stroke-width="1.5" opacity="0.2"/>
  
  <!-- Letra S estilizada para SIGEPA -->
  <path d="M16,10 C17.5,10 20,11 20,13.5 C20,16 17,16.5 16,16.5 C15,16.5 12,17 12,19.5 C12,22 14.5,23 16,23" 
        stroke="white" stroke-width="2.5" fill="none" stroke-linecap="round"/>
  
  <!-- Elemento de innovación -->
  <circle cx="16" cy="6.5" r="1.5" fill="url(#accentGradient)"/>
  <circle cx="16" cy="25.5" r="1.5" fill="url(#accentGradient)"/>
  
  <!-- Líneas de flujo para sugerir movimiento/transferencia -->
  <path d="M8,14 L12,14 M20,19 L24,19" stroke="white" stroke-width="1.5" opacity="0.8" stroke-linecap="round"/>
</svg> 