<?xml version="1.0" encoding="UTF-8"?>
<svg width="150px" height="40px" viewBox="0 0 150 40" version="1.1" xmlns="http://www.w3.org/2000/svg">
  <g fill="#009BBC">
    <path d="M12.5,5 L137.5,5 C144.375,5 150,10.625 150,17.5 L150,22.5 C150,29.375 144.375,35 137.5,35 L12.5,35 C5.625,35 0,29.375 0,22.5 L0,17.5 C0,10.625 5.625,5 12.5,5 Z" />
  </g>
  <g fill="#FFFFFF">
    <path d="M24,23 L24,15 L26,15 L26,23 L24,23 Z M16,23 L16,15 L23,15 L23,17 L18,17 L18,18 L22,18 L22,20 L18,20 L18,21 L23,21 L23,23 L16,23 Z M33,23 L33,15 L40,15 L40,17 L35,17 L35,18 L39,18 L39,20 L35,20 L35,21 L40,21 L40,23 L33,23 Z M42,23 L42,15 L44,15 L44,21 L49,21 L49,23 L42,23 Z M51,21 L51,17 L54,17 C54.5,17 55,17.5 55,18 L55,20 C55,20.5 54.5,21 54,21 L51,21 Z M49,23 L49,15 L54,15 C55.5,15 57,16.5 57,18 L57,20 C57,21.5 55.5,23 54,23 L49,23 Z M59,15 L61,15 L61,23 L59,23 L59,15 Z M69,20 L66,20 L66,21 L69,21 C69.5,21 70,20.5 70,20 C70,19.5 69.5,19 69,19 L66,19 L66,17 L69,17 C70.5,17 72,18.5 72,20 C72,21.5 70.5,23 69,23 L64,23 L64,15 L69,15 C70.5,15 72,16.5 72,18 C72,18.5 71.5,19 71,19 C71.5,19 72,19.5 72,20 L69,20 Z M81,23 L81,15 L88,15 L88,17 L83,17 L83,18 L87,18 L87,20 L83,20 L83,21 L88,21 L88,23 L81,23 Z M90,23 L90,15 L97,15 L97,17 L92,17 L92,18 L96,18 L96,20 L92,20 L92,21 L97,21 L97,23 L90,23 Z M105,23 L105,15 L112,15 L112,17 L107,17 L107,18 L111,18 L111,20 L107,20 L107,21 L112,21 L112,23 L105,23 Z M114,23 L114,15 L121,15 L121,17 L116,17 L116,18 L120,18 L120,20 L116,20 L116,21 L121,21 L121,23 L114,23 Z M130,17 L127,17 L127,19 L126,19 L126,15 L131,15 C132.5,15 134,16.5 134,18 L134,23 L132,23 L132,21 L128,21 L128,23 L126,23 L126,21 L127,21 L127,19 L130,19 C130.5,19 131,18.5 131,18 C131,17.5 130.5,17 130,17 Z" />
  </g>
</svg> 